<svg version="1.1" viewBox="0 0 3134.0608 524.74932" xmlns="http://www.w3.org/2000/svg">
 <defs>
  <linearGradient id="a" x1="330" x2="347.53" y1="203.73" y2="203.73" gradientTransform="matrix(-.93866 -.060578 -.062065 .91617 754.87 228.01)" gradientUnits="userSpaceOnUse">
   <stop stop-color="#fff" offset="0"/>
   <stop stop-color="#fff" stop-opacity="0" offset="1"/>
  </linearGradient>
  <filter id="c" x="-.36074" y="-.1095" width="1.7215" height="1.219" color-interpolation-filters="sRGB">
   <feGaussianBlur stdDeviation="3.6347163"/>
  </filter>
  <linearGradient id="b" x1="295" x2="295" y1="672.36" y2="772.36" gradientTransform="matrix(2.4328,0,0,2.5714,-207.75,-1205.9)" gradientUnits="userSpaceOnUse">
   <stop stop-color="#fff" offset="0"/>
   <stop stop-color="#fff" stop-opacity="0" offset="1"/>
  </linearGradient>
 </defs>
 <g transform="translate(-140 -252.36)">
  <rect x="150" y="262.36" width="3114.1" height="504.75" fill="#9ec3d7" opacity=".99" stroke="#9ec3d7" stroke-width="20"/>
  <path d="m582.9 484.5a182.46 128.57 0 0 0 -177.79 100.18 188.54 135 0 0 0 -71.572 -10.175 188.54 135 0 0 0 -188.54 135 188.54 135 0 0 0 18.398 57.857h785.46a194.62 122.14 0 0 0 23.28 -57.86 194.62 122.14 0 0 0 -194.62 -122.14 194.62 122.14 0 0 0 -15.9 0.47 182.46 128.57 0 0 0 -178.72 -103.33z" fill="url(#b)" opacity=".99"/>
  <path d="m373.89 496.47s-69.701-40.406-68.185-113.14c1.4833-71.2 67.68-72.226 67.68-72.226s73.068-6.5702 71.216 70.711c-1.7966 74.974-70.711 114.65-70.711 114.65z" fill="#d63d25" fill-rule="evenodd"/>
  <rect transform="rotate(-1.8088)" x="241.77" y="672.03" width="192" height="60" fill="#1e6388" stroke="#fff"/>
  <path d="m305.41 642.71 184.73-5.0334-35.376 20.327-191.9 6.0602z" fill="#1e6388" stroke="#fff"/>
  <path d="m373.64 500v149.5" fill="none" stroke="#1e6388" stroke-width="2.5"/>
  <path d="m454.77 658.01 35.149-19.919 1.322 54.959-34.577 24.93z" fill="#1e6388" stroke="#fff"/>
  <path d="m393.38 640.39c-14.154 4.202-34.843 20.987-34.843 20.987s-4.3246 26.476 3.6754 60.054" fill="none" stroke="#fff" stroke-width="2.5"/>
  <ellipse cx="373.26" cy="498.38" rx="6.2676" ry="2.9846" fill="#d63d25" stroke="#d63d25" stroke-width="2.5"/>
  <path d="m416.02 393.62c1.6374 18.821-9.0444 48.137-4.5017 48.43 4.5426 0.29316 21.191-32.056 22.467-50.904 1.2768-18.848 0.64517-28.462-3.8975-28.755-4.5427-0.29316-15.9 10.169-14.068 31.229z" fill="url(#a)" filter="url(#c)" opacity=".853"/>
  <path d="m373.66 640.39v9.5026" fill="none" stroke="#fff" stroke-width="2.5"/>
  <g fill="#1e6388">
   <path d="m576.07 332.42c-34.827 0-61.914 25.741-61.914 59.222 0 33.817 26.751 59.895 61.241 59.895 16.656 0 33.649-7.571 45.594-19.348l-11.777-13.123c-8.917 8.5805-21.031 13.964-32.808 13.964-23.554 0-42.061-18.339-42.061-41.556 0-23.218 18.507-41.388 42.061-41.388 11.945 0 24.227 5.7203 32.808 14.974l11.609-14.469c-11.44-11.27-28.1-18.17-44.75-18.17z"/>
   <path d="m711.85 361.97h-19.348v44.08c0 15.647-9.0852 27.592-24.564 27.929-12.955 0-20.862-8.244-20.862-21.704v-50.305h-19.348v55.689c0 21.367 12.282 34.49 32.808 34.49 14.637-0.16825 25.91-5.7203 31.966-18.17v17.497h19.348z"/>
   <path d="m740.47 361.97h-19.348v89.506h19.348v-46.772c1.5142-15.31 12.955-25.91 30.957-24.9v-18.507c-14.133 0-24.9 6.3933-30.957 18.507z"/>
   <path d="m789.59 325.42c-6.3933 0-11.272 4.8791-11.272 11.777 0 6.7298 4.8791 11.609 11.272 11.609 6.3933 0 11.272-4.8791 11.272-11.609 0-6.898-4.8791-11.777-11.272-11.777zm9.5899 126.86v-89.506h-19.18v89.506z"/>
   <path d="m853.93 361.41c-27.76 0-46.772 18.339-46.772 45.426 0 26.919 19.012 45.426 46.772 45.426 27.592 0 46.604-18.507 46.604-45.426 0-27.087-19.012-45.426-46.604-45.426zm0 16.656c15.983 0 27.256 11.777 27.256 28.938 0 17.329-11.272 29.106-27.256 29.106-16.151 0-27.424-11.777-27.424-29.106 0-17.161 11.272-28.938 27.424-28.938z"/>
   <path d="m992.85 362.42h-19.348v44.08c0 15.647-9.0852 27.592-24.564 27.929-12.955 0-20.862-8.244-20.862-21.704v-50.305h-19.348v55.689c0 21.367 12.282 34.49 32.808 34.49 14.637-0.16825 25.91-5.7203 31.966-18.17v17.497h19.348z"/>
   <path d="m1037.8 362.6c-17.161 0-32.976 7.7392-32.976 25.91-0.1682 32.303 46.94 22.04 46.94 40.379 0 6.7298-6.3933 9.5899-14.637 9.5899-9.7582 0-22.208-4.2061-29.948-11.104l-6.898 13.796c8.917 8.0757 22.881 12.45 36.004 12.45 18.002 0 34.322-8.244 34.322-26.583 0.1683-32.471-47.445-23.554-47.445-40.042 0-6.3933 5.552-8.917 13.123-8.917 7.9075 0 17.834 3.0284 25.741 7.9075l7.0663-14.301c-8.0757-5.7203-20.021-9.0852-31.294-9.0852z"/>
   <path d="m1165.7 332.86c-34.827 0-61.914 25.741-61.914 59.222 0 33.817 26.751 59.895 61.241 59.895 16.656 0 33.649-7.571 45.594-19.348l-11.777-13.123c-8.9169 8.5805-21.03 13.964-32.808 13.964-23.554 0-42.061-18.339-42.061-41.556 0-23.218 18.507-41.388 42.061-41.388 11.945 0 24.227 5.7203 32.808 14.974l11.609-14.469c-11.441-11.272-28.097-18.17-44.753-18.17z"/>
   <path d="m1259.6 361.25c-27.76 0-46.772 18.339-46.772 45.426 0 26.919 19.012 45.426 46.772 45.426 27.592 0 46.604-18.507 46.604-45.426 0-27.087-19.012-45.426-46.604-45.426zm0 16.656c15.983 0 27.256 11.777 27.256 28.938 0 17.329-11.272 29.106-27.256 29.106-16.151 0-27.424-11.777-27.424-29.106 0-17.161 11.272-28.938 27.424-28.938z"/>
   <path d="m1368.5 361.25c-15.142 0-26.583 5.3838-32.976 17.834v-17.161h-19.348v89.506h19.348v-47.613c1.3459-13.964 10.599-24.227 25.405-24.395 13.46 0 21.535 8.244 21.535 21.704v50.305h19.348v-55.689c0-21.367-12.45-34.49-33.312-34.49z"/>
   <path d="m1460.5 429.7c-5.2156 2.5237-9.4217 3.8696-13.46 3.8696-6.0568 0-9.5899-2.8602-9.5899-12.114v-42.902h26.414v-14.469h-26.414v-24.564h-19.18v24.564h-12.618v14.469h12.618v46.435c0 18.339 11.609 26.078 25.068 26.078 7.571 0 14.974-2.3554 22.04-6.5615l-4.8791-14.806z"/>
   <path d="m1529.7 451.02h19.012l-0.1683-58.717c-0.1682-19.685-13.123-31.462-36.172-31.462-16.993 0-26.078 3.8696-38.528 11.272l7.9075 13.46c8.9169-6.0568 17.834-9.0852 26.414-9.0852 14.133 0 21.367 6.7298 21.367 18.002v2.6919h-27.087c-21.535 0.16825-33.817 10.599-33.817 26.919 0 15.815 12.114 27.76 31.462 27.76 12.955 0 23.218-3.8696 29.611-11.777v10.936zm-25.573-14.469c-10.768 0-17.329-5.2156-17.329-13.291 0-8.5805 5.8886-11.945 18.507-11.945h24.227v8.244c-1.0095 9.7582-11.609 16.993-25.405 16.993z"/>
   <path d="m1568.5 324.17c-6.3933 0-11.272 4.8791-11.272 11.777 0 6.7298 4.8791 11.609 11.272 11.609 6.3933 0 11.272-4.8791 11.272-11.609 0-6.898-4.8791-11.777-11.272-11.777zm9.59 126.86v-89.506h-19.18v89.506z"/>
   <path d="m1641.7 360.84c-15.142 0-26.583 5.3838-32.976 17.834v-17.161h-19.348v89.506h19.348v-47.613c1.346-13.964 10.599-24.227 25.405-24.395 13.46 0 21.535 8.244 21.535 21.704v50.305h19.348v-55.689c0-21.367-12.45-34.49-33.312-34.49z"/>
   <path d="m1728.8 360.84c-26.583 0.16825-45.258 18.507-45.258 45.594 0 26.919 18.17 45.258 45.762 45.258 15.478 0 28.265-5.5521 37.014-15.142l-10.263-10.936c-6.5615 6.7298-15.478 10.431-25.237 10.431-14.132 0-24.732-8.5805-27.76-22.377h67.634c2.3554-32.303-10.431-52.829-41.893-52.829zm-26.078 38.696c2.1872-14.301 12.114-23.218 26.246-23.218 14.637 0 24.227 8.7487 24.9 23.218z"/>
   <path d="m1799 362.32h-19.348v89.506h19.348v-46.772c1.5142-15.31 12.955-25.91 30.957-24.9v-18.507c-14.132 0-24.9 6.3933-30.957 18.507z"/>
   <path d="m1869.3 361.88c-17.161 0-32.976 7.7392-32.976 25.91-0.1683 32.303 46.94 22.04 46.94 40.379 0 6.7298-6.3933 9.5899-14.637 9.5899-9.7582 0-22.208-4.2061-29.948-11.104l-6.898 13.796c8.9169 8.0757 22.881 12.45 36.004 12.45 18.002 0 34.322-8.244 34.322-26.583 0.1682-32.471-47.445-23.554-47.445-40.042 0-6.3933 5.5521-8.917 13.123-8.917 7.9075 0 17.834 3.0284 25.741 7.9075l7.0663-14.301c-8.0758-5.7203-20.021-9.0852-31.294-9.0852z"/>
  </g>
 </g>
</svg>
